<svg width="24" height="24" viewBox="0 0 24 24" fill="none" xmlns="http://www.w3.org/2000/svg">
<g clip-path="url(#clip0_2_10)">
<path d="M19.3667 5.84167C18.941 5.41584 18.4357 5.07804 17.8795 4.84757C17.3232 4.6171 16.7271 4.49848 16.125 4.49848C15.5229 4.49848 14.9268 4.6171 14.3705 4.84757C13.8143 5.07804 13.309 5.41584 12.8833 5.84167L12 6.725L11.1167 5.84167C10.2569 4.98192 9.09086 4.49892 7.875 4.49892C6.65914 4.49892 5.49308 4.98192 4.63333 5.84167C3.77359 6.70141 3.29059 7.86747 3.29059 9.08333C3.29059 10.2992 3.77359 11.4653 4.63333 12.325L12 19.6917L19.3667 12.325C19.7925 11.8994 20.1303 11.394 20.3608 10.8378C20.5912 10.2816 20.7099 9.68541 20.7099 9.08333C20.7099 8.48126 20.5912 7.88509 20.3608 7.32887C20.1303 6.77265 19.7925 6.2673 19.3667 5.84167Z" stroke="#1E1E1E" stroke-width="2" stroke-linecap="round" stroke-linejoin="round"/>
</g>
<defs>
<clipPath id="clip0_2_10">
<rect width="24" height="24" fill="white"/>
</clipPath>
</defs>
</svg>
